<?xml version="1.0" encoding="UTF-8"?>
<svg xmlns="http://www.w3.org/2000/svg" xmlns:xlink="http://www.w3.org/1999/xlink" width="50px" height="50px" viewBox="0 0 50 50" version="1.1">
<g id="surface1">
<path style=" stroke:none;fill-rule:nonzero;fill:rgb(100%,100%,100%);fill-opacity:1;" d="M 7.550781 25.039062 C 7.550781 27.117188 5.875 28.804688 3.8125 28.804688 C 1.746094 28.804688 0.0742188 27.117188 0.0742188 25.039062 C 0.0742188 22.960938 1.746094 21.277344 3.8125 21.277344 C 5.875 21.277344 7.550781 22.960938 7.550781 25.039062 M 11.648438 25.039062 C 11.648438 26.996094 10.808594 28.582031 9.777344 28.582031 C 8.75 28.582031 7.910156 26.996094 7.910156 25.039062 C 7.910156 23.085938 8.75 21.496094 9.777344 21.496094 C 10.808594 21.496094 11.648438 23.085938 11.648438 25.039062 M 13.324219 25.039062 C 13.324219 26.792969 13.03125 28.214844 12.667969 28.214844 C 12.304688 28.214844 12.011719 26.792969 12.011719 25.039062 C 12.011719 23.289062 12.304688 21.867188 12.667969 21.867188 C 13.03125 21.867188 13.324219 23.289062 13.324219 25.039062 M 23.636719 21.605469 L 23.648438 21.601562 L 23.648438 21.523438 L 21.523438 21.523438 L 19.550781 26.160156 L 17.578125 21.523438 L 15.285156 21.523438 L 15.285156 21.601562 L 15.296875 21.605469 C 15.683594 21.691406 15.882812 21.824219 15.882812 22.292969 L 15.882812 27.808594 C 15.882812 28.277344 15.683594 28.40625 15.296875 28.496094 L 15.285156 28.496094 L 15.285156 28.578125 L 16.839844 28.578125 L 16.839844 28.5 L 16.828125 28.496094 C 16.441406 28.40625 16.246094 28.277344 16.246094 27.808594 L 16.246094 22.613281 L 18.78125 28.578125 L 18.921875 28.578125 L 21.53125 22.449219 L 21.53125 27.941406 C 21.5 28.316406 21.304688 28.429688 20.953125 28.511719 L 20.941406 28.511719 L 20.941406 28.589844 L 23.648438 28.589844 L 23.648438 28.511719 L 23.636719 28.511719 C 23.289062 28.429688 23.085938 28.316406 23.054688 27.941406 L 23.050781 22.292969 L 23.054688 22.292969 C 23.054688 21.824219 23.25 21.691406 23.636719 21.605469 M 24.875 25.253906 C 24.917969 24.265625 25.277344 23.550781 25.875 23.539062 C 26.058594 23.539062 26.210938 23.601562 26.332031 23.71875 C 26.585938 23.964844 26.707031 24.480469 26.6875 25.253906 Z M 24.847656 25.535156 L 28.023438 25.535156 L 28.023438 25.523438 C 28.015625 24.765625 27.792969 24.175781 27.371094 23.769531 C 27.003906 23.421875 26.460938 23.230469 25.894531 23.230469 L 25.882812 23.230469 C 25.585938 23.230469 25.226562 23.300781 24.96875 23.429688 C 24.671875 23.566406 24.414062 23.769531 24.199219 24.035156 C 23.851562 24.464844 23.644531 25.046875 23.59375 25.695312 C 23.589844 25.714844 23.589844 25.734375 23.585938 25.757812 C 23.585938 25.777344 23.585938 25.792969 23.585938 25.8125 C 23.578125 25.902344 23.578125 25.996094 23.578125 26.085938 C 23.613281 27.5625 24.410156 28.742188 25.828125 28.742188 C 27.074219 28.742188 27.796875 27.835938 27.976562 26.613281 L 27.886719 26.582031 C 27.570312 27.238281 27 27.636719 26.351562 27.585938 C 25.464844 27.519531 24.785156 26.621094 24.847656 25.539062 M 31.609375 27.535156 C 31.503906 27.78125 31.289062 27.917969 30.996094 27.917969 C 30.703125 27.917969 30.4375 27.722656 30.25 27.355469 C 30.046875 26.964844 29.941406 26.414062 29.941406 25.765625 C 29.941406 24.40625 30.363281 23.527344 31.015625 23.527344 C 31.289062 23.527344 31.503906 23.664062 31.609375 23.902344 Z M 33.714844 28.503906 C 33.324219 28.414062 33.128906 28.277344 33.128906 27.78125 L 33.128906 21.195312 L 30.769531 21.890625 L 30.769531 21.976562 L 30.785156 21.976562 C 31.113281 21.949219 31.332031 21.996094 31.457031 22.109375 C 31.558594 22.203125 31.609375 22.347656 31.609375 22.546875 L 31.609375 23.449219 C 31.378906 23.300781 31.101562 23.230469 30.765625 23.230469 C 30.082031 23.230469 29.460938 23.515625 29.015625 24.035156 C 28.546875 24.578125 28.296875 25.316406 28.296875 26.175781 C 28.296875 27.710938 29.054688 28.742188 30.179688 28.742188 C 30.835938 28.742188 31.367188 28.382812 31.609375 27.773438 L 31.609375 28.589844 L 33.722656 28.589844 L 33.722656 28.507812 Z M 35.734375 22.09375 C 35.734375 21.613281 35.375 21.25 34.894531 21.25 C 34.414062 21.25 34.042969 21.621094 34.042969 22.09375 C 34.042969 22.5625 34.417969 22.933594 34.894531 22.933594 C 35.375 22.933594 35.734375 22.570312 35.734375 22.09375 M 36.289062 28.503906 C 35.902344 28.414062 35.707031 28.277344 35.707031 27.78125 L 35.703125 27.78125 L 35.703125 23.246094 L 33.589844 23.851562 L 33.589844 23.933594 L 33.601562 23.933594 C 34.058594 23.976562 34.183594 24.132812 34.183594 24.667969 L 34.183594 28.589844 L 36.300781 28.589844 L 36.300781 28.507812 Z M 41.710938 28.503906 C 41.320312 28.414062 41.125 28.277344 41.125 27.78125 L 41.125 23.246094 L 39.109375 23.832031 L 39.109375 23.914062 L 39.125 23.914062 C 39.496094 23.957031 39.605469 24.121094 39.605469 24.65625 L 39.605469 27.527344 C 39.480469 27.773438 39.246094 27.917969 38.964844 27.929688 C 38.503906 27.929688 38.25 27.621094 38.25 27.054688 L 38.25 23.246094 L 36.136719 23.851562 L 36.136719 23.933594 L 36.148438 23.933594 C 36.605469 23.976562 36.730469 24.132812 36.730469 24.667969 L 36.730469 27.097656 C 36.730469 27.265625 36.746094 27.433594 36.777344 27.601562 L 36.8125 27.765625 C 36.992188 28.40625 37.460938 28.742188 38.195312 28.742188 C 38.820312 28.742188 39.367188 28.359375 39.605469 27.757812 L 39.605469 28.589844 L 41.722656 28.589844 L 41.722656 28.507812 Z M 49.925781 28.589844 L 49.925781 28.507812 L 49.914062 28.503906 C 49.496094 28.40625 49.328125 28.226562 49.328125 27.851562 L 49.328125 24.765625 C 49.328125 23.804688 48.789062 23.230469 47.882812 23.230469 C 47.226562 23.230469 46.667969 23.609375 46.453125 24.207031 C 46.285156 23.574219 45.796875 23.230469 45.070312 23.230469 C 44.433594 23.230469 43.9375 23.566406 43.722656 24.132812 L 43.722656 23.246094 L 41.605469 23.828125 L 41.605469 23.910156 L 41.621094 23.914062 C 42.074219 23.949219 42.203125 24.113281 42.203125 24.632812 L 42.203125 28.589844 L 44.175781 28.589844 L 44.175781 28.507812 L 44.164062 28.503906 C 43.832031 28.425781 43.722656 28.28125 43.722656 27.914062 L 43.722656 24.375 C 43.808594 24.167969 43.988281 23.921875 44.34375 23.921875 C 44.785156 23.921875 45.007812 24.226562 45.007812 24.828125 L 45.007812 28.589844 L 46.980469 28.589844 L 46.980469 28.507812 L 46.96875 28.503906 C 46.632812 28.425781 46.523438 28.28125 46.523438 27.914062 L 46.523438 24.765625 C 46.523438 24.648438 46.515625 24.53125 46.496094 24.414062 C 46.59375 24.1875 46.78125 23.921875 47.148438 23.921875 C 47.59375 23.921875 47.8125 24.214844 47.8125 24.828125 L 47.8125 28.589844 Z M 49.925781 28.589844 "/>
</g>
</svg>
